<svg width="159" height="41" viewBox="0 0 159 41" fill="none" xmlns="http://www.w3.org/2000/svg">
<path d="M24.0443 18.3575C23.2035 19.4348 23.3383 22.7629 24.2478 23.7829C24.3657 23.9151 24.4807 24.0521 24.593 24.194C25.8568 25.7903 26.4887 27.6194 26.4887 29.6813C26.4887 31.5436 26.0231 33.1898 25.0919 34.6198C24.194 36.0166 22.8803 37.114 21.151 37.9122C19.4217 38.7103 17.3764 39.1094 15.0152 39.1094H5.827C2.60884 39.1094 0 36.5006 0 33.2824V10.1171C0 6.89891 2.60884 4.29007 5.827 4.29007H14.3667C16.7279 4.29007 18.7566 4.67251 20.4526 5.43741C22.182 6.2023 23.479 7.26651 24.3436 8.63001C25.2415 9.99352 25.6905 11.5399 25.6905 13.2693C25.6905 15.2979 25.1418 16.994 24.0443 18.3575V18.3575ZM6.98382 14.2919C6.98382 16.7026 8.93805 18.6568 11.3487 18.6568H13.369C15.0319 18.6568 16.3122 18.291 17.2101 17.5593C18.1081 16.7944 18.557 15.7136 18.557 14.3168C18.557 12.9201 18.1081 11.8392 17.2101 11.0744C16.3122 10.3095 15.0319 9.92701 13.369 9.92701H11.3487C8.93806 9.92701 6.98382 11.8812 6.98382 14.2919V14.2919ZM14.0175 33.4226C15.7136 33.4226 17.0272 33.0235 17.9584 32.2254C18.9228 31.4272 19.4051 30.2965 19.4051 28.8332C19.4051 27.3367 18.9062 26.1727 17.9085 25.3413C16.9108 24.4766 15.564 24.0443 13.8679 24.0443H11.673C9.08323 24.0443 6.98382 26.1437 6.98382 28.7335V28.7335C6.98382 31.3232 9.08322 33.4226 11.673 33.4226H14.0175Z" fill="white"/>
<path d="M38.5895 8.18105C37.359 8.18105 36.3281 7.79861 35.4967 7.03371C34.6985 6.23556 34.2995 5.2545 34.2995 4.09053C34.2995 2.92656 34.6985 1.96212 35.4967 1.19723C36.3281 0.399076 37.359 0 38.5895 0C39.82 0 40.8343 0.399076 41.6325 1.19723C42.4639 1.96212 42.8796 2.92656 42.8796 4.09053C42.8796 5.2545 42.4639 6.23556 41.6325 7.03371C40.8343 7.79861 39.82 8.18105 38.5895 8.18105ZM38.5396 11.4734C40.4682 11.4734 42.0316 13.0368 42.0316 14.9653V35.6175C42.0316 37.546 40.4682 39.1094 38.5396 39.1094V39.1094C36.6111 39.1094 35.0477 37.546 35.0477 35.6175V14.9653C35.0477 13.0368 36.6111 11.4734 38.5396 11.4734V11.4734Z" fill="white"/>
<path d="M67.2392 11.0744C70.5316 11.0744 73.1921 12.1219 75.2207 14.2171C77.2493 16.279 78.2637 19.1723 78.2637 22.897V35.6175C78.2637 37.546 76.7003 39.1094 74.7717 39.1094V39.1094C72.8432 39.1094 71.2798 37.546 71.2798 35.6175V23.8448C71.2798 21.6499 70.7311 19.9704 69.6336 18.8064C68.5362 17.6092 67.0397 17.0106 65.144 17.0106C63.2152 17.0106 61.6854 17.6092 60.5547 18.8064C59.4572 19.9704 58.9085 21.6499 58.9085 23.8448V35.6175C58.9085 37.546 57.3451 39.1094 55.4166 39.1094V39.1094C53.488 39.1094 51.9247 37.546 51.9247 35.6175V14.9653C51.9247 13.0368 53.488 11.4734 55.4166 11.4734H58.0292C58.5148 11.4734 58.9085 11.8671 58.9085 12.3527V12.3527C58.9085 13.1899 60.0636 13.6287 60.7376 13.1321C61.262 12.7458 61.8329 12.4091 62.4503 12.1219C63.9136 11.4235 65.5099 11.0744 67.2392 11.0744Z" fill="white"/>
<path d="M130.201 8.18105C128.97 8.18105 127.939 7.79861 127.108 7.03371C126.31 6.23556 125.911 5.2545 125.911 4.09053C125.911 2.92656 126.31 1.96212 127.108 1.19723C127.939 0.399076 128.97 0 130.201 0C131.431 0 132.445 0.399076 133.244 1.19723C134.075 1.96212 134.491 2.92656 134.491 4.09053C134.491 5.2545 134.075 6.23556 133.244 7.03371C132.445 7.79861 131.431 8.18105 130.201 8.18105ZM130.151 11.4734C132.079 11.4734 133.643 13.0368 133.643 14.9653V35.6175C133.643 37.546 132.079 39.1094 130.151 39.1094V39.1094C128.222 39.1094 126.659 37.546 126.659 35.6175V14.9653C126.659 13.0368 128.222 11.4734 130.151 11.4734V11.4734Z" fill="white"/>
<path d="M150.52 12.418C150.52 13.3711 151.958 13.8471 152.692 13.2398C153.104 12.8998 153.543 12.5937 154.012 12.3215C154.457 12.0685 154.92 11.854 155.403 11.678C157.305 10.9837 159 12.7159 159 14.7409V16.5616C159 17.581 158.174 18.4074 157.154 18.4074V18.4074C154.959 18.4074 153.297 18.9228 152.166 19.9538C151.068 20.9847 150.52 22.7806 150.52 25.3413V35.6175C150.52 37.546 148.956 39.1094 147.028 39.1094V39.1094C145.099 39.1094 143.536 37.546 143.536 35.6175V14.9653C143.536 13.0368 145.099 11.4734 147.028 11.4734H149.575C150.097 11.4734 150.52 11.8963 150.52 12.418V12.418Z" fill="white"/>
<path d="M97.6486 10.9319C99.634 7.36449 104.755 7.33381 106.783 10.8772L116.49 27.8377C118.96 32.1537 114.597 37.1633 109.982 35.3087L104.151 32.9646C102.879 32.4535 101.458 32.4605 100.191 32.984L94.8491 35.1923C90.2586 37.0897 85.8478 32.1357 88.2634 27.7954L97.6486 10.9319Z" fill="white"/>
<path d="M94.4757 30.117C94.4757 30.6016 94.9365 30.9535 95.404 30.8261L98.3108 30.0335C99.7448 29.6425 101.158 30.722 101.158 32.2083V32.2083C101.158 33.0001 100.743 33.7338 100.064 34.1412L98.6922 34.9643C98.5637 35.0414 98.4851 35.1802 98.4851 35.3301V35.3301C98.4851 35.5657 98.6761 35.7568 98.9118 35.7568H101.826H103.831H106.077C106.313 35.7568 106.504 35.5657 106.504 35.3301V35.3301C106.504 35.1802 106.425 35.0414 106.297 34.9643L104.925 34.1412C104.246 33.7338 103.831 33.0001 103.831 32.2083V32.2083C103.831 30.722 105.244 29.6425 106.678 30.0335L109.585 30.8261C110.052 30.9535 110.513 30.6016 110.513 30.117V30.117C110.513 29.8818 110.401 29.6609 110.211 29.5226L105.031 25.755C104.277 25.2068 103.831 24.3309 103.831 23.3988V19.7193C103.831 18.9809 103.233 18.3828 102.494 18.3828C101.756 18.3828 101.158 18.9809 101.158 19.7193V23.3989C101.158 24.3309 100.712 25.2068 99.9582 25.755L94.7784 29.5226C94.5882 29.6609 94.4757 29.8818 94.4757 30.117V30.117Z" fill="#4EB9E1"/>
</svg>
