<svg width="517" height="587" viewBox="0 0 517 587" fill="none" xmlns="http://www.w3.org/2000/svg">
<g clip-path="url(#clip0_427_682)">
<path opacity="0.1" d="M46.0249 516.86C105.182 574.358 312.236 612.504 434.314 480.979C556.393 349.453 462.95 -9.86541 248.096 24.5556C33.2427 58.9766 76.7136 157.189 58.3799 233.878C40.0463 310.566 -13.1319 459.362 46.0249 516.86Z" fill="#2A94F4"/>
<path opacity="0.1" d="M345.598 570.284C384.847 570.284 416.664 565.641 416.664 559.913C416.664 554.186 384.847 549.542 345.598 549.542C306.35 549.542 274.533 554.186 274.533 559.913C274.533 565.641 306.35 570.284 345.598 570.284Z" fill="#2A94F4"/>
<path opacity="0.1" d="M144.399 567.885C188.486 567.885 224.225 562.711 224.225 556.329C224.225 549.947 188.486 544.773 144.399 544.773C100.312 544.773 64.5728 549.947 64.5728 556.329C64.5728 562.711 100.312 567.885 144.399 567.885Z" fill="#2A94F4"/>
<path opacity="0.1" d="M250.749 587C294.836 587 330.576 583.418 330.576 579C330.576 574.582 294.836 571.001 250.749 571.001C206.662 571.001 170.923 574.582 170.923 579C170.923 583.418 206.662 587 250.749 587Z" fill="#2A94F4"/>
<path d="M292.581 80.2858C292.581 80.2858 289.43 68.9355 289.706 67.4485C289.876 66.5337 291.839 60.9051 292.499 59.0593C292.744 58.3723 292.993 57.6733 293.052 56.9341C293.113 56.1781 292.973 55.4182 292.807 54.6796C292.346 52.6294 291.678 50.6423 291.012 48.6612C290.835 48.1345 290.656 47.6041 290.391 47.1252C290.07 46.5453 289.631 46.0578 289.195 45.5795C286.702 42.8452 284.134 40.1983 281.493 37.6425C281.354 37.5077 281.202 37.3663 281.019 37.3446C280.581 37.2919 279.092 40.5682 279.049 41.3253C278.875 44.4848 279.489 47.7035 280.805 50.532C281.067 51.0951 281.36 51.6527 281.484 52.2702C281.815 53.9083 280.913 55.4802 280.461 57.0716C280.053 58.5098 279.631 60.0474 279.458 61.5453C279.139 64.2912 281.287 66.1571 281.606 66.6625C281.783 66.9425 281.836 67.2919 281.889 67.6273C282.237 69.816 282.88 78.0036 282.88 78.0036" fill="#FCD2B1"/>
<path d="M333.733 102.214C330.922 104.359 330.602 109.445 330.451 112.899C330.269 117.059 330.792 121.22 331.531 125.288C332.045 128.119 332.718 131.051 334.431 133.215C335.306 134.32 336.408 135.165 337.498 135.998C338.116 136.47 338.747 136.949 339.467 137.179C340.187 137.409 341.022 137.35 341.601 136.82C342.446 136.047 342.461 134.635 342.406 133.416C342.047 125.472 341.832 117.386 343.641 109.692" fill="#0B4870"/>
<path d="M314.849 537.032C314.849 537.032 314.788 544.526 315.263 547.185C315.737 549.844 323.409 548.987 324.145 547.473C324.88 545.96 323.963 533.574 323.963 533.574" fill="#FCD2B1"/>
<path d="M326.365 550.031C326.575 552.84 326.561 558.147 326.561 558.147L318.695 560.265L317.694 558.772C317.694 558.772 315.497 560.87 313.072 561.587C311.273 562.118 307.512 562.525 305.655 562.386C299.156 561.9 294.674 559.637 294.451 558.575C293.519 554.137 302.155 554.693 303.913 554.53C308.959 554.059 312.358 550.014 313.343 547.132C314.057 545.041 313.636 544.567 314.708 544.847C314.708 544.847 315.665 544.978 316.385 546.164C317.49 547.985 319.41 549.094 321.362 548.533C322.479 548.212 323.58 547.638 324.332 546.633C324.332 546.633 326.155 547.221 326.365 550.031Z" fill="#0B4870"/>
<path d="M329.868 445.056C329.122 431.89 338.641 414.269 338.641 414.269C338.641 414.269 312.94 398.493 312.554 393.586C312.554 393.586 309.035 420.678 307.772 430.238C305.579 446.842 312.994 541.554 312.994 541.554C312.994 541.554 318.373 543.221 325.516 541.748C325.516 541.748 326.852 505.164 332.206 480.383C334.743 468.633 330.755 448.313 329.868 445.056Z" fill="#0E538C"/>
<path d="M331.932 293.256C322.283 317.313 311.805 394.94 309.293 421.736C308.228 433.099 316.698 446.416 326.561 436.141C338.334 423.876 354.898 367.688 360.816 357.77C366.734 347.852 388.878 338.759 373.754 288.434" fill="#0E538C"/>
<path d="M375.256 537.502C375.256 537.502 376.125 548.068 376.466 550.753C376.807 553.437 384.51 553.059 385.32 551.594C386.131 550.128 385.832 537.704 385.832 537.704" fill="#FCD2B1"/>
<path d="M387.495 553.821C387.665 556.634 387.24 561.268 387.24 561.268L378.377 561.933L377.841 560.313C377.841 560.313 375.067 562.182 372.809 562.351L365.328 562.913C359.853 563.324 356.697 562.779 356.493 561.712C355.644 557.256 362.198 556.969 363.902 556.842C368.793 556.474 373.934 553.519 374.922 550.658C375.638 548.582 375.237 548.101 376.271 548.401C376.271 548.401 377.196 548.553 377.878 549.752C378.926 551.595 380.772 552.744 382.669 552.222C383.754 551.924 384.828 551.372 385.568 550.383C385.568 550.383 387.327 551.008 387.495 553.821V553.821Z" fill="#0B4870"/>
<path d="M355.99 443.502C357.623 452.864 379.511 449.367 379.039 441.076C378.367 429.289 385.76 414.056 388.594 357.951C388.918 351.542 394.666 350.601 396.929 333.17C399.162 315.707 389.906 296.379 389.906 296.379L356.228 290.993C356.228 290.993 343.286 323.621 345.963 356.155C348.639 388.689 354.054 432.479 355.99 443.502V443.502Z" fill="#0E538C"/>
<path d="M378.98 439.108C378.98 439.108 386.637 456.054 387.535 468.304C388.85 486.227 387.225 545.217 387.225 545.217C387.225 545.217 378.942 547.227 374.52 545.77C374.52 545.77 355.08 441.108 354.367 429.854C353.654 418.6 378.98 439.108 378.98 439.108V439.108Z" fill="#0E538C"/>
<path d="M318.89 179.815C322.697 174.936 334.78 166.895 350.929 167.465C362.055 167.856 392.356 169.909 395.743 178.225C397.473 182.476 399.332 226.011 396.797 241.022C394.892 252.308 390.017 280.27 390.017 287.018C390.017 293.766 393.261 296.658 391.747 298.618C388.357 303.007 365.171 304.85 354.286 304.85C344.597 304.85 328.107 301.964 327.27 298.496C326.028 293.348 329.161 293.541 329.585 288.145C330.01 282.749 332.292 247.159 329.455 241.986C324.953 233.777 320.481 212.152 320.135 205.964C319.789 199.777 315.083 184.694 318.89 179.815V179.815Z" fill="#2A94F4"/>
<path d="M347.393 154.534C347.393 154.534 347.284 169.549 346.742 170.155C346.652 170.256 346.503 170.379 346.317 170.514C344.604 171.759 343.834 174.116 344.319 176.334C345.135 180.059 346.551 184.842 348.365 184.242C350.391 183.571 360.273 178.14 366.165 174.861C367.736 173.987 368.306 172 367.896 170.094C367.882 170.035 367.876 169.974 367.876 169.913C367.876 168.702 370.476 145.09 370.476 145.09" fill="#FCD2B1"/>
<path d="M346.141 99.3525C343.707 101.152 336.176 102.118 335.192 106.095C334.209 110.071 334.831 118.575 334.743 121.017C334.567 125.878 334.984 130.85 335.246 135.699C335.586 142.017 336.46 153.498 342.983 156.486C344.857 157.343 345.647 157.565 347.566 157.265C350.119 156.866 352.679 156.534 355.231 156.131C359.186 155.504 363.579 154.854 366.891 152.143C371.316 148.52 371.787 139.909 371.536 134.27L370.095 101.975L346.141 99.3525V99.3525Z" fill="#FFE3CA"/>
<path d="M345.745 198.099C346.327 185.533 307.57 136.26 308.042 134.121C308.514 131.983 290.654 69.2345 290.654 69.2345L280.504 70.1128C280.504 70.1128 283.822 123.175 288.354 140.912C291.545 153.397 316.412 190.178 316.412 190.178C316.412 190.178 345.164 210.664 345.745 198.099Z" fill="#2A94F4"/>
<path d="M372.234 281.224L430.69 293.553C431.067 293.633 431.424 293.799 431.741 294.04C432.058 294.282 432.326 294.594 432.529 294.958C432.732 295.321 432.866 295.728 432.922 296.152C432.977 296.576 432.953 297.008 432.852 297.421L425.021 342.596C424.836 343.347 424.406 343.993 423.814 344.406C423.223 344.819 422.514 344.967 421.829 344.823L363.374 332.494C362.997 332.415 362.639 332.249 362.323 332.007C362.006 331.765 361.738 331.453 361.535 331.09C361.331 330.726 361.198 330.32 361.142 329.896C361.087 329.472 361.111 329.04 361.212 328.627L369.043 283.451C369.227 282.7 369.658 282.054 370.249 281.641C370.841 281.229 371.549 281.08 372.234 281.224Z" fill="#0B4870"/>
<path d="M372.925 284.693L428.893 296.497L421.14 341.354L365.172 329.55L372.925 284.693Z" fill="#F7F7F7"/>
<path d="M371.438 327.199L377.552 289.014M376.717 328.343L382.831 290.157M384.313 330.081L390.426 291.896M391.908 331.819L398.022 293.634M399.503 333.557L406.358 295.371M407.098 335.295L413.953 297.11M414.694 337.033L421.829 298.848" stroke="#D3D3D3" stroke-width="0.528" stroke-miterlimit="10" stroke-linecap="round" stroke-linejoin="round"/>
<path d="M403.226 314.063C403.226 314.063 400.914 319.332 399.675 322.008C398.868 323.754 392.727 329.596 390.265 334.251C389.078 336.498 388.031 339.035 388.334 341.623C388.637 344.21 390.814 346.662 393.097 346.114C393.747 345.958 394.492 345.603 395.017 346.058C395.284 346.289 395.401 346.669 395.565 346.998C396.07 348.01 397.158 348.617 398.185 348.458C399.212 348.301 400.113 347.389 400.355 346.263C401.925 347.902 404.657 347.868 406.193 346.191C405.279 345.348 404.597 344.047 404.784 342.739C404.964 341.479 405.873 340.537 406.57 339.525C407.804 337.721 408.451 335.501 408.403 333.231C408.364 331.628 407.977 330.061 407.819 328.467C407.495 325.196 408.168 321.812 409.701 319.002" fill="#FCD2B1"/>
<path d="M385.617 208.538C387.384 215.574 414.29 261.85 414.29 261.85L399.886 320.507L408.098 326.249C408.098 326.249 433.707 278.705 433.786 265.281C433.865 251.855 415.052 202.636 401.299 182.511C396.921 176.105 388.146 172.871 388.146 172.871" fill="#2A94F4"/>
<path d="M372.758 128.128C370.753 127.649 369.122 126.963 368.559 129.166C368.26 130.334 368.296 131.781 367.403 132.474C366.513 133.164 365.2 132.55 364.628 131.523C364.055 130.496 364.02 129.218 364.001 128.008L363.878 119.976C363.837 117.354 363.722 114.5 362.197 112.506C361.427 111.5 360.366 110.821 359.269 110.317C355.697 108.674 351.686 108.717 347.849 109.22C344.012 109.722 340.208 110.658 336.346 110.716C334.723 110.74 333.066 110.601 331.562 109.919C329.133 108.818 327.315 106.35 326.467 103.578C325.619 100.806 325.671 97.7627 326.241 94.9038C326.788 95.763 327.42 96.5498 328.126 97.2491C328.188 95.805 328.511 94.3897 329.074 93.0884C332.046 99.2253 355.985 87.9935 362.575 88.7549C367.144 89.2822 370.821 89.3729 372.826 96.6251C373.08 97.0517 373.526 97.2735 373.943 97.4849C378.539 99.8079 381.366 103.649 383.738 110.025C386.64 117.826 385.026 128.024 382.884 136.125C382.346 138.161 382.122 139.548 381.046 141.299C379.97 143.048 377.643 144.569 375.758 144.843C373.874 145.118 370.432 146.574 369.804 144.57C369.354 143.137 371.354 139.546 371.776 138.103" fill="#0B4870"/>
<path d="M368.552 138.056C368.552 138.056 368.658 139.504 369.719 140.284C370.65 140.968 371.946 140.342 372.764 139.673C375.097 137.767 376.06 134.26 375.685 131.143C375.243 127.469 372.559 124.621 369.99 126.565C368.487 127.702 368.072 130.185 368.657 132.105" fill="#FFE3CA"/>
<path d="M362.688 315.215L367.747 316.553L371.4 295.418L366.327 294.22L362.688 315.215Z" fill="#0B4870"/>
<path d="M359.314 308.711L365.111 309.935L366.821 299.828L361.024 298.604C358.526 298.076 356.118 299.911 355.646 302.702C355.533 303.366 355.539 304.048 355.663 304.709C355.786 305.37 356.025 305.998 356.366 306.556C356.706 307.114 357.142 307.591 357.648 307.961C358.154 308.331 358.72 308.586 359.314 308.711V308.711ZM359.747 306.505C359.409 306.44 359.086 306.301 358.796 306.096C358.507 305.89 358.257 305.622 358.061 305.307C357.865 304.993 357.727 304.638 357.656 304.263C357.584 303.888 357.58 303.501 357.644 303.124C357.707 302.748 357.837 302.389 358.026 302.069C358.215 301.749 358.46 301.475 358.745 301.262C359.03 301.048 359.35 300.901 359.687 300.827C360.023 300.754 360.37 300.756 360.706 300.834C361.369 300.987 361.951 301.425 362.328 302.054C362.705 302.683 362.846 303.452 362.72 304.195C362.594 304.939 362.212 305.597 361.656 306.029C361.1 306.461 360.415 306.632 359.747 306.505V306.505Z" fill="#0B4870"/>
<path d="M258.029 47.1595C258.458 43.1233 250.142 40.3921 249.308 43.7288C249.219 44.0864 248.499 45.0691 248.304 46.5703C248.138 47.8503 247.637 49.3422 247.491 50.6298C247.359 51.7995 247.609 57.2733 245.165 57.8581C241.419 58.7549 243.793 51.4723 241.152 49.8385C240.323 49.3259 239.442 54.972 239.379 58.1657C239.317 61.3583 239.302 62.9585 239.57 64.8385C239.804 66.7196 240.735 69.3801 240.604 70.5194C240.394 72.3532 238.477 76.1203 238.477 76.1203L247.941 78.527C247.941 78.527 250.177 72.7157 251.321 71.364C254.194 68.1616 255.992 64.4858 257.05 60.0398C257.713 57.2548 257.939 54.3475 258.13 51.4821C258.13 51.4815 257.985 47.5758 258.029 47.1595V47.1595Z" fill="#FCD2B1"/>
<path d="M169.047 135.545C169.047 135.545 199.058 135.249 215.35 114.847C228.349 94.4972 240.906 71.9841 241.844 69.8948C244.401 70.9873 249.898 73.7973 249.898 73.7973C249.898 73.7973 232.726 116.727 226.038 126.532C219.348 136.336 206.19 152.395 178.378 160.367C165.056 143.277 169.047 135.545 169.047 135.545V135.545ZM188.605 535.821C188.605 535.821 190.331 540.222 190.244 543.177C190.157 546.131 181.769 546.735 180.737 545.253C179.704 543.771 178.717 530.266 178.717 530.266" fill="#FCD2B1"/>
<path d="M178.613 547.953C178.727 551.024 179.676 555.991 179.676 555.991L189.351 555.545L189.762 553.719C189.762 553.719 192.965 555.38 195.43 555.266L203.597 554.891C209.575 554.616 212.938 553.608 213.046 552.426C213.497 547.485 206.363 548.037 204.504 548.122C199.163 548.368 193.279 545.84 191.908 542.87C190.912 540.715 191.296 540.139 190.207 540.602C190.207 540.602 189.221 540.887 188.607 542.277C187.666 544.412 185.786 545.9 183.675 545.584C182.468 545.404 181.247 544.948 180.34 543.973C180.34 543.973 178.501 544.882 178.613 547.953V547.953Z" fill="#0B4870"/>
<path d="M94.091 529.956C94.091 529.956 92.5927 537.953 91.5322 540.661C90.4727 543.37 82.4802 540.46 82.0127 538.656C81.5442 536.852 85.1046 523.9 85.1046 523.9" fill="#FCD2B1"/>
<path d="M79.1455 540.286C78.2329 543.185 76.9282 548.782 76.9282 548.782L84.4426 553.331L85.8368 552.052C85.8368 552.052 87.5622 554.91 89.8617 556.379C91.5692 557.469 95.313 559.006 97.2461 559.407C104.01 560.808 109.155 559.742 109.647 558.689C111.704 554.286 102.736 552.329 100.98 551.64C95.9386 549.658 93.4688 544.392 93.1789 541.065C92.9687 538.651 93.516 538.276 92.3504 538.254C92.3504 538.254 91.34 538.111 90.3092 539.149C88.7273 540.742 86.4876 541.346 84.6313 540.18C83.5698 539.513 82.5862 538.584 82.0677 537.303C82.0686 537.303 80.0581 537.386 79.1455 540.286V540.286Z" fill="#0B4870"/>
<path d="M120.32 317.536C120.32 317.536 105.877 282.964 127.869 256.37C127.869 256.37 147.798 265.257 163.511 265.718C175.885 266.08 182.098 264.364 182.098 264.364C182.098 264.364 185.819 289.837 185.774 330.048L120.32 317.536V317.536ZM177.913 539.712C178.311 539.726 178.707 539.708 179.076 539.691C187.239 539.41 191.847 538.12 191.847 538.12L191.75 535.492C189.813 495.244 191.751 429.226 191.835 408.387C191.837 406.929 191.76 405.601 191.575 404.404C189.597 389.241 175.588 391.883 170.182 406.149C168.914 409.474 167.941 413.133 167.235 417.066C166.359 421.8 165.839 426.929 165.613 432.363C164.144 467.25 174.548 513.864 177.913 539.712V539.712Z" fill="#FFBE55"/>
<path d="M145.815 332.621C145.887 333.03 145.988 333.469 146.089 333.908C149.881 352.095 161.823 401.175 167.232 417.035L167.234 417.067C168.025 419.282 170.503 421.07 173.626 421.846C180.789 423.674 191.249 420.243 191.574 404.404C191.622 402.658 191.525 400.76 191.307 398.708C189.9 385.93 184.767 315.195 184.005 308.38C183.271 301.564 181.799 291.643 178.522 290.525C162.17 285.03 140.648 307.172 145.815 332.621ZM116.405 407.595C126.897 395.621 142.279 400.352 135.844 418.482C128.961 437.867 107.46 491.795 96.136 530.052L95.3489 532.542C95.3489 532.542 90.2046 531.791 81.8647 528.339C87.0129 503.607 89.8597 461.261 101.35 431.316C105.045 421.688 110.967 413.801 116.405 407.595V407.595Z" fill="#FFBE55"/>
<path d="M173.737 292.055C174.813 263.636 143.912 283.898 129.105 293.947C122.872 298.176 120.827 306.159 120.245 313.611C119.658 321.064 114.284 397.759 113.153 411.759C110.603 443.32 134.511 425.026 136.509 416.221C141.551 393.992 173.151 307.54 173.737 292.055V292.055Z" fill="#FFBE55"/>
<path d="M169.529 112.85C169.595 114.989 169.668 123.355 165.691 125.353C161.712 127.381 159.161 128.232 159.276 128.919C159.321 129.23 159.714 130.703 160.135 132.146C161.05 135.375 162.436 136.177 162.436 136.177L163.012 146.887L155.864 154.851L153.529 157.446L150.021 153.858L138.583 142.218C138.583 142.218 143.297 135.73 140.042 128.777C139.577 127.797 134.365 121.348 130.208 114.852C127.789 111.032 125.729 107.227 125.185 104.509C123.694 97.0735 122.438 89.2463 126.257 84.5774C130.048 79.9081 156.237 60.7121 161.48 83.236C161.48 83.2366 169.464 110.71 169.529 112.85V112.85Z" fill="#FFE3CA"/>
<path d="M138.55 106.351C138.55 106.351 144.84 108.888 144.194 99.3497C144.158 98.8285 144.492 98.3622 144.985 98.1986C146.826 97.5904 150.887 95.1853 148.819 85.9765C148.647 85.2079 149.15 84.4519 149.924 84.3345C152.596 83.9301 158.113 83.1339 159.337 83.2567C159.337 83.2567 159.943 83.1899 160.85 83.3583C161.145 83.4132 161.401 83.5997 161.535 83.8693C161.961 84.722 164.401 93.4145 164.401 93.4145C164.401 93.4145 167.308 90.9654 166.997 89.3131C166.685 87.6608 165.315 84.1568 165.472 83.2774C165.629 82.3974 167.866 81.3625 167.882 79.3836C167.919 74.9088 166.356 57.7798 154.196 68.3116C152.605 69.6889 151.194 71.3455 149.785 71.9243C147.946 72.6793 145.868 71.2232 141.866 71.5385C136.274 71.9782 112.24 78.2585 119.935 102.138C127.629 126.017 140.291 129.424 140.291 129.424C140.291 129.424 136.139 109.388 138.55 106.351V106.351Z" fill="#0B4870"/>
<path d="M138.55 106.351C138.55 106.351 137.36 102.247 134.287 103.429C130.163 105.018 130.534 116.591 139.518 115.067C139.518 115.067 138.316 110.335 138.55 106.351Z" fill="#FFE3CA"/>
<path d="M195.838 288.434C195.838 288.434 150.464 297.485 109.617 289.014C111.598 274.914 119.346 235.073 119.871 218.99L119.927 217.351C120.252 207.082 120.42 199.749 120.624 199.448C121.034 198.816 119.58 166.047 121.989 153.204C122.43 150.838 123.015 149.159 123.759 148.479C128.54 144.038 134.161 139.385 140.434 135.906C140.434 135.906 155.05 153.474 162.508 134.033C170.714 133.207 174.892 135.058 177.266 144.235C190.403 195.219 195.838 288.434 195.838 288.434V288.434Z" fill="#2A94F4"/>
<path d="M168.631 134.154C168.631 134.154 182.223 134.413 196.088 127.546C203.825 137.711 208.502 156.236 208.502 156.236C208.502 156.236 189.797 169.519 176.124 170.796C173.191 148.53 168.631 134.154 168.631 134.154V134.154Z" fill="#2A94F4"/>
<path d="M192.731 166.676L194.353 170.264L191.211 168.305L166.868 139.957L168.387 138.327L192.731 166.676Z" fill="#0B4870"/>
<path d="M114.781 199.338C114.781 199.338 121.071 223.586 137.43 235.003C142.196 238.329 148.177 236.469 151.922 231.788C163.121 217.794 174.316 186.27 177.898 174.367C171.332 170.472 169.234 171.079 169.234 171.079C169.234 171.079 153.351 195.716 144.239 212.202L137.433 198.94" fill="#FCD2B1"/>
<path d="M168.767 171.998C168.767 171.998 171.687 166.726 171.824 162.732C171.961 158.737 170.266 151.832 173.74 148.239C175.032 146.901 179.555 144.853 184.648 145.794C192.223 147.195 186.233 161.872 185.888 165.205C185.37 170.216 179.118 172.336 177.758 174.833C176.791 176.609 168.767 171.998 168.767 171.998V171.998Z" fill="#FCD2B1"/>
<path d="M127.504 145.128C127.504 145.128 110.647 157.466 109.927 178.47C109.37 194.711 118.981 218.408 118.981 218.408C118.981 218.408 135.659 220.463 144.413 205.233C141.82 197.835 139.551 191.264 134.569 182.53" fill="#2A94F4"/>
<path d="M239.346 16.4197L244.64 78.9797C244.674 79.383 244.783 79.7741 244.959 80.1281C245.135 80.4822 245.375 80.7917 245.663 81.037C245.952 81.2824 246.283 81.4582 246.635 81.5535C246.988 81.6488 247.354 81.6615 247.711 81.5908L286.367 73.9326C287.016 73.8042 287.598 73.4075 287.997 72.8215C288.396 72.2355 288.583 71.5031 288.521 70.7699L283.227 8.20984C283.193 7.80659 283.084 7.41561 282.908 7.06157C282.732 6.70752 282.492 6.39809 282.204 6.15277C281.915 5.90745 281.585 5.73158 281.232 5.63623C280.88 5.54088 280.514 5.52813 280.157 5.59878L241.501 13.2564C240.852 13.3849 240.27 13.7817 239.87 14.3678C239.471 14.9539 239.284 15.6864 239.346 16.4197V16.4197Z" fill="#FFBE55"/>
<path d="M242.208 17.4475L247.277 77.3454L285.659 69.741L280.59 9.84367L242.208 17.4475Z" fill="#F7F7F7"/>
<path d="M277.918 15.3767L245.301 21.8386M278.421 21.0293L245.805 27.4912M266.742 30.1653L246.359 34.2036M266.693 35.2015L246.31 39.2399M266.644 40.2372L246.261 44.2756M281.154 62.6285L260.771 66.6669" stroke="#D3D3D3" stroke-width="0.528" stroke-miterlimit="10" stroke-linecap="round" stroke-linejoin="round"/>
<path d="M265.029 265.61C267.47 264.325 269.284 261.947 271.02 259.639L276.157 252.805C276.833 251.907 277.54 250.924 277.616 249.754C274.746 249.493 272.896 253.66 270.025 253.906C271.365 248.618 273.28 243.534 275.728 238.767C276.325 237.605 276.974 236.25 276.551 234.997C273.448 236.321 270.835 238.787 268.574 241.505C266.985 243.417 265.54 245.472 264.252 247.649C260.463 254.056 258.116 261.409 256.518 268.878M252.675 320.349L221.899 291.339C221.899 291.339 207.577 313.043 212.972 333.981C215.625 344.278 218.956 349.383 220.402 354.269C221.753 358.833 231.016 423.44 230.325 428.163C229.634 432.887 224.66 446.103 222.762 460.002C220.479 476.718 220.867 531.182 219.096 545.623C217.326 560.064 229.261 562.507 229.918 557.621C235.528 515.864 250.345 450.793 252.418 429.917C254.491 409.04 253.649 370.812 252.675 320.349V320.349Z" fill="#FCD2B1"/>
<path d="M231.99 544.21C231.99 544.21 229.125 559.362 229.896 561.293C230.667 563.224 233.439 568.837 236.278 570.865C239.258 572.994 245.856 575.525 246.384 576.448C246.912 577.371 245.3 576.232 244.358 577.057C241.928 579.191 237.308 579.242 234.548 578.734C225.602 577.084 226.725 576.136 221.513 575.428C220.613 575.306 218.946 576.793 216.457 575.37C213.968 573.947 212.759 571.375 212.973 568.956C213.342 564.782 215.44 561.343 216.933 558.255C218.427 555.169 219.478 541.044 219.478 541.044" fill="#FCD2B1"/>
<path d="M246.913 576.678C246.962 575.543 243.079 573.825 241.344 572.933C239.609 572.041 236.857 571.254 237.827 571.84C238.796 572.425 237.005 574.7 235.388 574.5C211.708 571.579 215.909 561.692 215.707 560.706C214.835 561.325 212.807 566.22 212.396 567.76C212.025 569.152 211.813 571.647 211.712 573.146C211.289 579.486 246.488 586.65 246.913 576.678Z" fill="#0B4870"/>
<path d="M294.697 579.642C294.036 578.826 286.907 577.53 283.563 575.969C280.377 574.482 276.518 569.7 275.767 567.671C275.017 565.643 275.188 555.362 275.285 551.046C275.951 521.312 280.869 448.652 281.581 431.252C282.818 401.007 279.304 369.789 268.89 321.237L230.108 287.983C230.108 287.983 219.247 310.543 222.883 332.112C224.992 344.626 234.283 346.551 235.853 351.415C237.424 356.278 260.887 434.695 260.887 434.695C260.887 434.695 256.322 451.647 256.057 470.221C255.831 486.075 262.266 533.9 263.46 552.121C263.6 555.681 264.149 564.204 263.21 566.917C262.059 570.242 259.127 574.147 259.274 578.341C259.359 580.772 259.594 580.185 262.342 581.137C265.09 582.089 267.961 583.223 268.905 583.18C274.372 582.926 275.929 583 285.368 582.997C288.279 582.996 292.457 585.325 294.696 582.771C295.564 581.782 295.358 580.458 294.697 579.642V579.642Z" fill="#FCD2B1"/>
<path d="M295.509 583.364C295.806 581.932 295.957 580.117 295.273 579.773C294.324 579.295 290.956 577.653 289.052 577.088C287.149 576.523 284.211 576.248 285.285 576.649C286.359 577.051 284.803 579.726 283.104 579.726C261.799 579.726 262.342 570.621 262.008 569.683C261.187 570.454 258.758 575.665 258.528 577.262C258.321 578.706 258.295 581.23 258.504 582.712C258.876 585.356 294.621 587.645 295.509 583.364Z" fill="#0B4870"/>
<path d="M222.71 287.689C220.078 290.919 210.698 308.381 210.598 322.596C210.499 336.809 215.025 345.924 215.431 348.891C218.406 370.604 221.282 396.791 221.282 398.212C221.282 399.633 232.314 407.855 247.149 406.811C274.56 404.883 285.218 396.861 285.218 396.861C285.218 396.861 283.92 344.265 279.694 318.331C277.576 305.333 268.355 284.416 268.355 284.416" fill="#0E538C"/>
<path d="M197.701 230.896C197.701 230.896 202.116 255.405 203.274 259.767C204.433 264.129 210.16 291.821 215.589 291.339C221.018 290.857 250.749 263.123 250.749 263.123L246.539 253.714L220.367 267.653C220.367 267.653 218.003 235.997 215.929 228.458" fill="#FFBE9D"/>
<path d="M215.43 196.927C215.43 196.927 206.752 197.96 202.352 201.721C191.13 211.314 199.814 246.133 199.814 246.133C199.814 246.133 199.261 247.992 206.794 247.52C214.327 247.048 220.367 244.653 220.367 244.653L218.19 216.122" fill="#FFBE55"/>
<path d="M256.909 132.684C262.138 140.26 261.102 150.914 259.813 160.372L257.857 174.718C257.547 176.99 257.134 179.472 255.55 180.938C253.952 182.416 251.669 182.391 249.597 182.291L249.66 194.164C243.6 194.328 237.538 194.355 231.477 194.245C231.472 191.464 230.936 188.715 229.905 186.184C226.94 186.119 224.959 182.797 223.798 179.749C222.46 176.232 221.485 172.559 220.543 168.885C219.293 164.011 218.088 159.059 217.973 153.99C217.859 148.92 218.939 143.651 221.82 139.733C223.785 137.062 226.463 135.167 229.207 133.566C232.966 131.375 237.481 129.645 241.358 131.564" fill="#FFE3CA"/>
<path d="M250.637 168.772C249.921 164.793 249.972 162.549 251.138 159.899C251.524 159.021 252.034 158.193 252.73 157.647C253.673 156.908 254.925 156.763 255.969 157.272C256.651 157.604 257.212 158.223 257.597 158.967C258.832 153.623 259.092 147.927 258.735 142.377C258.169 133.576 253.42 126.772 246.487 123.59C233.649 117.698 215.206 123.519 209.992 137.598C206.054 148.232 208.051 163.58 215.589 172.494C222.262 180.386 231.862 181.546 240.721 179.92C245.254 179.088 252.25 179.587 254.596 172.699C254.777 172.167 254.37 171.638 253.888 171.679C252.048 171.837 250.769 169.508 250.637 168.772V168.772Z" fill="#0B4870"/>
<path d="M251.622 150.051C252.099 150.886 251.987 152.009 252.435 152.864C253.187 154.3 254.188 154.819 255.538 155.519C257.717 156.647 257.207 160.192 257.144 161.777C258.788 160.556 259.055 157.232 259.452 155.544C259.898 153.648 260.182 151.703 260.676 149.822C261.158 147.992 261.99 146.268 262.144 144.344C262.676 137.693 258.942 129.876 254.428 126.144C251.143 123.426 246.128 123.538 242.416 126.302C240.853 127.466 239.678 129.225 238.986 131.175C238.69 132.014 238.484 132.989 238.853 133.79M278.893 188.056L266.409 249.328C266.328 249.723 266.322 250.132 266.39 250.53C266.458 250.928 266.6 251.306 266.805 251.639C267.01 251.973 267.275 252.256 267.583 252.47C267.891 252.683 268.236 252.824 268.595 252.881L307.455 259.116C308.107 259.221 308.771 259.047 309.314 258.63C309.857 258.213 310.24 257.583 310.387 256.865L322.871 195.593C322.952 195.198 322.958 194.789 322.89 194.391C322.822 193.993 322.68 193.615 322.475 193.282C322.27 192.948 322.005 192.665 321.697 192.452C321.389 192.238 321.044 192.098 320.685 192.04L281.825 185.806C281.173 185.701 280.509 185.874 279.966 186.291C279.423 186.708 279.04 187.338 278.893 188.056Z" fill="#0B4870"/>
<path d="M281.324 190.033L269.371 248.697L307.956 254.887L319.909 196.224L281.324 190.033Z" fill="#F7F7F7"/>
<path d="M315.822 200.545L283.032 195.285M314.718 206.09L281.928 200.83M301.067 210.687L280.576 207.399M299.61 215.453L279.12 212.165M298.154 220.219L277.663 216.931M305.668 246.557L285.177 243.27" stroke="#D3D3D3" stroke-width="0.528" stroke-miterlimit="10" stroke-linecap="round" stroke-linejoin="round"/>
<path d="M263.597 236.463C263.597 236.463 281.356 284.417 289.062 284.417C294.667 284.417 308.411 240.15 308.411 240.15L299.727 235.557L290.043 254.096L280.237 219.518" fill="#FFE3CA"/>
<path d="M298.003 238.856C298.003 238.856 300.882 233.791 300.671 230.199C300.591 228.829 299.863 222.31 300.471 221.028C301.08 219.747 302.54 215.552 303.374 214.737C304.208 213.921 307.293 212.61 308.048 213.192C308.802 213.775 309.867 211.984 310.992 211.328C318.275 207.086 323.363 224.335 315.672 231.171C314.284 232.404 313.114 235.105 310.828 236.651C309.699 237.414 309.081 238.747 308.003 241.009" fill="#FFE3CA"/>
<path d="M272.535 281.994C271.708 280.628 269.8 278.994 269.115 277.491C267.473 273.883 266.036 258.691 266.601 254.81C267.207 250.65 270.502 248.412 271.989 239.153C273.905 227.226 269.527 217.956 267.08 213.985C263.621 208.37 265.672 208.402 264.489 201.524C264.275 200.284 264.025 198.962 263.267 198.098C262.52 197.246 257.364 194.613 256.351 194.439C246.736 192.775 241.086 194.074 231.366 194.549C226.558 194.784 221.757 195.411 217.036 196.575C211.812 197.863 207.26 199.41 206.186 207.332C204.524 219.584 205.921 231.97 209.255 243.591C211.465 251.293 224.658 277.939 221.389 283.096C220.641 284.275 218.771 286.513 218.545 287.983C217.718 293.369 228.608 295.263 233.269 295.69C240.371 296.342 248.519 295.905 255.638 295.533C261.031 295.252 272.827 293.148 273.665 285.703C273.829 284.241 273.182 283.062 272.535 281.994V281.994Z" fill="#FFBE55"/>
<path d="M247.263 193.699C251.887 193.968 265.353 191.328 272.835 200.072C279.103 207.398 282.695 226.604 285.218 234.393C278.939 241.545 272.889 247.313 263.374 244.991C263.015 244.693 258.294 228.092 254.857 226.616" fill="#FFBE55"/>
<path d="M253.888 171.679C253.888 171.679 269.836 194.311 260.857 219.518C249.873 250.355 248.896 251.989 260.857 270.166C272.819 288.343 262.207 310.659 245.04 316.444C227.873 322.228 183.788 319.438 186.453 276.255C187.543 258.597 198.17 255.856 193.81 238.198C189.45 220.54 188.508 209.579 196.609 190.703C204.71 171.826 196.259 119.78 239.588 121.599C239.588 121.598 231.672 177.316 253.888 171.679V171.679Z" fill="#0B4870"/>
</g>
<defs>
<clipPath id="clip0_427_682">
<rect width="517" height="587" fill="white"/>
</clipPath>
</defs>
</svg>
